Sholay (1975) Hindi Movie - DVDRip- E.Subs - MJY

Country:India
Language:Hindi
Prodcution: Sippy Films
Release Date:15 August 1975 
Director:Ramesh Sippy
Producer: G.P.Sippy

Cast:

Dharmendra ... Veeru
Sanjeev Kumar ... Thakur
Hema Malini ...	Basanti
Amitabh Bachchan ... Jai (Jaidev)
Jaya Bhaduri ... Radha
Amjad Khan ...Gabbar (Introducing)
A.K. Hangal ...Imaam Saheb
Satyendra Kapoor ... Ramlal (as Satyen Kappu)
Iftekhar ... Narmalaji (Radha's father)
Leela Mishra	 ... Mausie (as Leela Misra)
Vikas Anand ... Jailer assigned to bring Veeru & Jaidev
Mac Mohan ...Sambha
Keshto Mukherjee ... Hariram
Sachin ... Ahmed
Alankar Joshi ... Deepak (as Master Alankar)

Lyrics:Anand Bakshi
Play Black: Lata Mangeshkar, Kishore Kumar, Manna Day, Rahul Dev Burman
Music :Rahul Dev Burman
Writers:Javed Akhtar, Salim Khan
Art Dirtector: Ram Yedekar
Audiography: S.Y.Pathak
Dance: P.L.Raj 



Rip info:


General

Complete name : Sholay (1975) -Hindi Movie -DVDRip -ESubs - Team  MJY -
Format : Matroska
File size : 701 MiB
Duration : 3h 25mn
Overall bit rate : 477 Kbps
Writing application : AVI-Mux GUI 1.17.8, Aug 30 2008  12:36:58

Video

ID : 1
Format : AVC
Format/Info : Advanced Video Codec
Format profile : High@L3.0
Format settings, CABAC : Yes
Format settings, ReFrames : 5 frames
Codec ID : V_MPEG4/ISO/AVC
Duration : 3h 25mn
Bit rate : 412 Kbps
Width : 592 pixels
Height : 448 pixels
Display aspect ratio : 4:3
Frame rate : 29.970 fps
Color space : YUV
Chroma subsampling : 4:2:0
Bit depth : 8 bits
Scan type : Progressive
Bits/(Pixel*Frame) : 0.052
Stream size : 593 MiB (85%)
Writing library : x264 core 68 r1183M f21daff
Encoding settings : cabac=1 / ref=5 / deblock=1:-1:-1 / analyse=0x3:0x133 / me=umh / subme=7 / psy_rd=1.0:0.0 / mixed_ref=1 / me_range=16 / chroma_me=1 / trellis=2 / 8x8dct=1 / cqm=0 / deadzone=21,11 / chroma_qp_offset=-2 / threads=3 / nr=0 / decimate=1 / mbaff=0 / bframes=3 / b_pyramid=1 / b_adapt=2 / b_bias=0 / direct=3 / wpredb=1 / keyint=250 / keyint_min=25 / scenecut=40 / rc=2pass / bitrate=412 / ratetol=1.0 / qcomp=0.60 / qpmin=10 / qpmax=51 / qpstep=4 / cplxblur=20.0 / qblur=0.5 / ip_ratio=1.40 / pb_ratio=1.30 / aq=1:1.00
Language : English
 
Audio

ID : 2
Format : MPEG Audio
Format version : Version 2
Format profile : Layer 3
Mode : Joint stereo
Mode extension : MS Stereo
Codec ID : A_MPEG/L3
Codec ID/Hint : MP3
Duration : 3h 17mn
Bit rate mode : Variable
Bit rate : 64.0 Kbps
Channel(s) : 2 channels
Sampling rate : 24.0 KHz
Compression mode : Lossy
Stream size : 90.5 MiB (13%)
Title : VTS_02_1 T80 3_2ch 384Kbps DELAY 0ms
Writing library : LAME3.98r
Encoding settings : -m j -V 4 -q 2 -lowpass 11 --abr 64
Language : English



screenshots:
 
http://i.imgur.com/BMp9t.jpg
 
http://i.imgur.com/ehCK5.jpg
 
http://i.imgur.com/YSZgp.jpg
 
http://i.imgur.com/RcikR.jpg
 
http://i.imgur.com/tb8Ow.jpg

thumbnails:
 
http://i.imgur.com/7afB0.jpg


SEED AFTER DOWNLOAD